# xmcd CD database file
#
# Track frame offsets:
#	150
#	12041
#	28390
#	44645
#	60554
#	87690
#	104402
#	119149
#	128210
#	138711
#
# Disc length: 1964 seconds
#
# Revision: 0
# Processed by: cddbd v1.5.1PL0 Copyright (c) Steve Scherf et al.
# Submitted via: CDex 1.51
#
DISCID=9a07aa0a
DTITLE=G. Kamikawa and D. Schiele - Roaming Blues
DYEAR=2004
DGENRE=Country
TTITLE0=Roaming Blues
TTITLE1=Mojo Working
TTITLE2=Desert Dream
TTITLE3=Crazy Love
TTITLE4=Road to Tamworth
TTITLE5=Hoochie Coochie Man
TTITLE6=Byron Jam
TTITLE7=Sandhill
TTITLE8=Ranaway Trains
TTITLE9=G.D.K.S. Sample #1
EXTD=YEAR: 2004
EXTT0=
EXTT1=
EXTT2=
EXTT3=
EXTT4=
EXTT5=
EXTT6=
EXTT7=
EXTT8=
EXTT9=
PLAYORDER=
